<svg xmlns="http://www.w3.org/2000/svg" width="13.979" height="14" viewBox="0 0 13.979 14"><path d="M6.921,14a2.1,2.1,0,0,1-.293-.021,2.564,2.564,0,0,1-.253-.048L.751,12.376A1.057,1.057,0,0,1,.219,12,.97.97,0,0,1,0,11.392V.772A.741.741,0,0,1,.3.158.714.714,0,0,1,.746,0,.864.864,0,0,1,.983.035L6.607,1.591a1.361,1.361,0,0,0,.308.027,1.355,1.355,0,0,0,.307-.027L13,.035A.864.864,0,0,1,13.233,0a.714.714,0,0,1,.445.158.741.741,0,0,1,.3.615v10.62a1.043,1.043,0,0,1-.751.969L7.454,13.932a1.47,1.47,0,0,1-.28.054C7.071,14,6.988,14,6.921,14ZM.874.909V11.392a.123.123,0,0,0,.034.082.2.2,0,0,0,.061.055l5.584,1.543V2.465a.329.329,0,0,1-.089-.013.3.3,0,0,0-.089-.014ZM7.426,2.437V13.031l5.57-1.5a.293.293,0,0,0,.068-.055.116.116,0,0,0,.04-.082V.909L7.454,2.437Zm1.4,7.808H8.764a.46.46,0,0,1-.259-.082.39.39,0,0,1-.164-.231A.449.449,0,0,1,8.389,9.6a.442.442,0,0,1,.252-.212l3.058-.86a.49.49,0,0,1,.109-.013.456.456,0,0,1,.225.06.449.449,0,0,1,.212.266.427.427,0,0,1-.049.321.446.446,0,0,1-.252.212l-3.058.859A.136.136,0,0,1,8.825,10.246Zm-3.556,0H5.208a.139.139,0,0,1-.062-.014L2.089,9.373a.444.444,0,0,1-.253-.212.427.427,0,0,1-.048-.321A.446.446,0,0,1,2,8.573a.456.456,0,0,1,.225-.06.5.5,0,0,1,.11.013l3.057.86a.445.445,0,0,1,.253.212.454.454,0,0,1,.048.335.39.39,0,0,1-.164.231A.46.46,0,0,1,5.27,10.246ZM8.825,7.625H8.764a.46.46,0,0,1-.259-.082.388.388,0,0,1-.164-.232.447.447,0,0,1,.048-.334.439.439,0,0,1,.252-.212L11.7,5.9a.5.5,0,0,1,.11-.013.448.448,0,0,1,.224.061.442.442,0,0,1,.212.266.424.424,0,0,1-.049.32.439.439,0,0,1-.252.212l-3.058.86A.136.136,0,0,1,8.825,7.625Zm-3.556,0H5.208a.139.139,0,0,1-.062-.013l-3.057-.86a.437.437,0,0,1-.253-.212.424.424,0,0,1-.048-.32.459.459,0,0,1,.435-.327.5.5,0,0,1,.111.013l3.057.86a.437.437,0,0,1,.253.212.452.452,0,0,1,.048.334.388.388,0,0,1-.164.232A.46.46,0,0,1,5.27,7.625ZM8.825,5H8.764a.46.46,0,0,1-.259-.082.4.4,0,0,1-.164-.232.451.451,0,0,1,.048-.335.446.446,0,0,1,.252-.211l3.058-.86a.48.48,0,0,1,.11-.013.448.448,0,0,1,.224.061.442.442,0,0,1,.212.266.424.424,0,0,1-.049.32.442.442,0,0,1-.252.211l-3.058.86A.136.136,0,0,1,8.825,5ZM5.27,5H5.208a.139.139,0,0,1-.062-.013L2.089,4.13a.445.445,0,0,1-.253-.211.424.424,0,0,1-.048-.32.46.46,0,0,1,.435-.327.486.486,0,0,1,.111.013l3.057.86a.444.444,0,0,1,.253.211.455.455,0,0,1,.048.335.4.4,0,0,1-.164.232A.46.46,0,0,1,5.27,5Z" transform="translate(0 0)"/></svg>