<svg xmlns="http://www.w3.org/2000/svg" width="11.236" height="15" viewBox="0 0 11.236 15"><path d="M10.2,15H1.069a1.045,1.045,0,0,1-.754-.308A1.011,1.011,0,0,1,0,13.946V1.055A1.011,1.011,0,0,1,.315.308,1.045,1.045,0,0,1,1.069,0H6.123a1.075,1.075,0,0,1,.425.088.168.168,0,0,1,.044.029.147.147,0,0,1,.058.03,1.726,1.726,0,0,1,.22.161l4.073,4.116a1,1,0,0,1,.293.733v8.789a1.033,1.033,0,0,1-.3.747A1,1,0,0,1,10.2,15ZM1.055,1.055V13.946h9.126V5.625H6.68a1.045,1.045,0,0,1-.754-.308,1.008,1.008,0,0,1-.315-.747V1.055Zm5.611.556h0V4.57H9.609ZM8.027,11.25H7.354V8.438H9.14v.556H8.027v.63h.952v.557H8.027v1.068Zm-2.578,0H4.6V8.438h.82a1.474,1.474,0,0,1,1.033.344,1.365,1.365,0,0,1,.374,1.048,1.43,1.43,0,0,1-.366,1.062A1.39,1.39,0,0,1,5.45,11.25ZM5.288,8.979v1.729h.087c.506,0,.762-.3.762-.879a.9.9,0,0,0-.2-.659.786.786,0,0,0-.564-.191ZM2.7,11.25H2.021V8.438H3c.748,0,1.128.306,1.128.908a.861.861,0,0,1-.315.725,1.278,1.278,0,0,1-.8.241H2.7v.937Zm0-2.285v.82h.293c.321,0,.483-.148.483-.439,0-.253-.172-.381-.512-.381Z" transform="translate(0 0)"/></svg>