<svg xmlns="http://www.w3.org/2000/svg" width="143" height="52" viewBox="0 0 143 52"><defs><style>.a,.c{fill:#2e2e2e;}.b{fill:#fff;}.c{font-size:7px;font-family:PTSerif-Regular, PT Serif;}</style></defs><g transform="translate(-24 -24)"><g transform="translate(24 24)"><path class="a" d="M26,52A26,26,0,1,0,0,26,26,26,0,0,0,26,52Z"/><path class="b" d="M29.978,0h-6.2l-.443.08V.709c0,.074.212.136.27.182a.538.538,0,0,0,.27.077l.562.03a1.335,1.335,0,0,1,1.079.423c.244.255.284.687.094,1.294L20.127,17.8l-.209-.066L16.436,9.475c.051-.124.081-.194.081-.194l2.851-6.175c.331-.651.652-1.233.816-1.5.3-.495.443-.588,1.254-.631.166,0,.229-.086.229-.259V.086L21.625.019s-3.408-.012-4.96,0v.69c0,.076-.04.137.015.183s.083.076.146.076L17.06,1c.635.032.918.223,1,.344.152.216.222.447-.145,1.374l-2.2,5.066-1.984-4.7c-.65-1.5-.811-1.966.169-2.053l.264-.064c.189,0,.159-.079.159-.228V.082l-.02-.054H9.023L9,.093V.752c0,.148.139.186.4.227.918.139.9.25,1.809,2.335.136.312.536,1.254.536,1.254l2.068,4.7s.234.6.6,1.542l-3.005,6.943-.172-.051S6.57,6.317,5.221,2.507a2.842,2.842,0,0,1-.2-.867c0-.387.3-.6.9-.625L6.839.98c.187,0,.495-.083.495-.255V.1L7.057.035S1.344.027.19.035L0,.1V.757C0,.875.15.949.409.98a2.344,2.344,0,0,1,1.41.395A5.337,5.337,0,0,1,2.6,3.021c1.7,4.716,5.3,13.132,7.055,17.926.5,1.308,1.141,1.512,1.911-.041.793-1.7,2.393-5.484,3.559-8.274,1.092,2.784,2.578,6.55,3.3,8.256.571,1.366,1.222,1.5,1.882.041C22.027,16.483,27.073,3.1,27.073,3.1a3.592,3.592,0,0,1,.915-1.53A2.721,2.721,0,0,1,29.771.967C29.935.967,30,.879,30,.71V.082L29.978,0Z" transform="translate(11 17)"/></g><g transform="translate(86 37)"><text class="c" transform="translate(5 25)"><tspan x="0" y="0">The Free Encyclopedia</tspan></text><path d="M1.817,2.694l-.357-.741C.857.717.87.652.259.571.089.545,0,.523,0,.437V.045L.051.007H3.611l.094.03V.429c0,.086-.063.131-.188.131L3.258.6c-.652.056-.544.329-.112,1.219L7.263,10.49l.141.037L11.057,1.6q.19-.54-.054-.765A.894.894,0,0,0,10.3.581L9.955.562a.2.2,0,0,1-.12-.043A.135.135,0,0,1,9.778.411V.037L9.832,0h4.126L14,.037V.411c0,.1-.054.149-.167.149a2.037,2.037,0,0,0-1.2.362,2.136,2.136,0,0,0-.609.907S8.662,9.751,7.511,12.385c-.439.863-.87.784-1.25-.026-.8-1.706-3.068-6.878-3.068-6.878L1.816,2.694Z" transform="translate(5)"/><path d="M6.57,13c-.2,0-.385-.21-.553-.623-.528-1.363-1.34-3.259-2.125-5.092-.854-2-1.737-4.059-2.288-5.507A2.974,2.974,0,0,0,1.121.8,1.5,1.5,0,0,0,.244.572C.077.549,0,.507,0,.437V.05L.038.013c.222,0,.724,0,1.414,0,1.25,0,2.8,0,2.8,0L4.295.05V.417c0,.1-.058.153-.177.153L3.68.589C3.3.608,3.114.73,3.114.961a1.73,1.73,0,0,0,.125.515C4.07,3.686,6.975,10.393,7,10.461l.106.028L11.185,1.6c.232-.554.18-.689.088-.809A.868.868,0,0,0,10.64.583L10.483.564a.179.179,0,0,1-.114-.045.13.13,0,0,1-.051-.106V.041L10.365,0c.3,0,.717,0,1.251,0,.922,0,1.9,0,1.9,0l.04.039V.411a.137.137,0,0,1-.154.155c-.5.024-.608.073-.8.373-.061.1-.278.46-.508.887L10.314,5.48c-.023.052-2.274,5.194-3.1,6.872C6.989,12.782,6.772,13,6.57,13Zm57.578-.114h0l-.033-.037v-.41a.11.11,0,0,1,.12-.115l.357-.037c.505-.052.761-.3.761-.739V5.092c0-.445-.246-.548-.763-.6l-.357-.041c-.083,0-.12-.023-.12-.074V3.929l.017-.038h0c.013,0,1.391.038,1.946.038.677-.009,1.28-.021,1.843-.038l.017.038v.427c0,.059-.038.093-.105.093l-.375.041c-.547.056-.741.214-.741.6v6.455c0,.469.22.683.746.737l.375.037a.107.107,0,0,1,.1.117v.41l-.017.037h0c-.022,0-1.352-.037-1.895-.037-.487,0-1.864.037-1.877.038Zm-31.779,0h0l-.033-.037v-.41a.11.11,0,0,1,.119-.115l.358-.037c.505-.052.761-.3.761-.739V5.092c0-.445-.246-.548-.763-.6l-.358-.041c-.082,0-.119-.023-.119-.074V3.929l.017-.038h0c.013,0,1.391.038,1.947.038.677-.009,1.28-.021,1.844-.038l.017.038v.427c0,.06-.038.093-.106.093l-.374.041c-.549.056-.743.214-.743.6v6.455c0,.469.22.683.748.737l.375.037a.107.107,0,0,1,.1.117v.41l-.017.037h0c-.022,0-1.353-.037-1.895-.037-.488,0-1.865.037-1.879.038Zm-9.552,0h0l-.033-.037v-.41a.111.111,0,0,1,.123-.115l.354-.037c.484-.055.762-.324.762-.739V5.092c0-.407-.171-.542-.762-.6l-.354-.041c-.087,0-.124-.022-.124-.074V3.929l.016-.038h0c.014,0,1.453.038,2,.038.49,0,1.6-.037,1.613-.038l.017.038v.427c0,.056-.034.075-.105.093l-.2.041c-.557.117-.743.221-.743.6V8.019c.586,0,.914-.322,1.7-1.24.775-.935,1.255-1.585,1.255-1.939,0-.139-.134-.325-.511-.391-.074-.018-.109-.037-.109-.093V3.909l.017-.019c.008,0,1.435.037,1.951.037.456,0,1.232-.037,1.24-.037l.05.019v.447c0,.057-.053.093-.14.093h-.009a2.092,2.092,0,0,0-1.8.895l-1.526,1.92c-.283.323-.409.543-.409.716a.554.554,0,0,0,.158.328l2.675,3.528a1.751,1.751,0,0,0,.994.466l.088.019c.057.021.124.058.124.115v.407l-.05.019c-.007,0-.943-.019-1.436-.019-.441,0-1.074.019-1.08.019l-.017-.019V12.61a1.043,1.043,0,0,0-.268-.774L26.328,9.159a1,1,0,0,0-.937-.484v2.87h-.006c0,.417.223.638.744.737l.2.037c.047.017.105.039.105.117v.41l-.017.037c-.047,0-1.128-.037-1.647-.037-.491,0-1.935.037-1.949.038Zm-5.23,0h0l-.033-.037v-.41a.111.111,0,0,1,.122-.115l.355-.037c.506-.052.763-.3.763-.739V5.092c0-.445-.246-.548-.761-.6l-.355-.041c-.085,0-.122-.023-.122-.074V3.929l.017-.038h0c.013,0,1.393.038,1.948.038.677-.009,1.28-.021,1.844-.038l.016.038v.427c0,.058-.04.093-.107.093L20.9,4.49c-.549.056-.743.214-.743.6v6.455c0,.469.214.682.745.737l.374.037a.107.107,0,0,1,.1.117v.41l-.017.037h0c-.022,0-1.353-.037-1.895-.037-.488,0-1.865.037-1.879.038Zm55.209,0h0c-.01,0-1.937-.037-2.357-.037-.458,0-1.583.037-1.595.037l-.034-.037v-.369a.137.137,0,0,1,.14-.155c.795-.057,1.224-.219,1.721-1.454L74.6.788c.2-.529.351-.7.6-.7s.338.187.477.583L79.315,11.18A1.364,1.364,0,0,0,80.627,12.3l.2.019a.163.163,0,0,1,.177.157v.367l-.051.037c-.014,0-1.378-.037-2.059-.037-.618,0-2.339.037-2.356.037l-.017-.037v-.367c0-.107.04-.157.127-.157l.494-.037c.392-.033.626-.124.733-.287a.619.619,0,0,0,.013-.548L76.8,8.174H73.119c-.431,0-.533.082-.62.329l-1.028,2.812a.707.707,0,0,0,.035.632.842.842,0,0,0,.675.337h-.006l.515.037a.148.148,0,0,1,.141.157v.369l-.034.037Zm1.969-10.7h0L72.993,7.107a.167.167,0,0,0,0,.158c.046.066.177.094.44.094h3.084L74.8,2.182Zm-16.394,10.7c-.873,0-1.432-.014-1.881-.025-.277-.007-.495-.012-.706-.012-.529,0-1.866.037-1.879.037l-.017-.037v-.406a.119.119,0,0,1,.031-.086.1.1,0,0,1,.072-.03l.409-.039c.55-.062.709-.25.709-.835v-6.4c0-.492-.115-.5-.67-.555l-.039,0-.388-.043c-.074,0-.126-.038-.126-.093V3.929l.016-.038h0c.015,0,1.556.038,1.879.038.156,0,.572-.008,1.012-.017.507-.01,1.081-.021,1.328-.021,2.722,0,4.413,1.76,4.413,4.593a4.323,4.323,0,0,1-1.345,3.472A4.338,4.338,0,0,1,58.371,12.884Zm-.763-8.43c-.589,0-1.135.073-1.135.6v6.4c0,.527.1.872,1.471.872,2.166,0,3.049-1.016,3.049-3.508a6.177,6.177,0,0,0-.576-2.937A2.965,2.965,0,0,0,57.608,4.453Zm-12.034,8.43h0l-.017-.036v-.428c0-.035.014-.094.106-.094l.409-.04a.755.755,0,0,0,.709-.833v-6.4c0-.455-.228-.522-.711-.559l-.4-.043c-.108-.014-.108-.056-.108-.074V3.929l.017-.038h0c.013,0,1.369.038,1.913.038h2.607c.519,0,1.776-.037,1.788-.038l.034.038a15.625,15.625,0,0,0,.267,2.326l-.443.078c-.165-.61-.471-1.744-1.664-1.744H48.66c-.349,0-.511.148-.511.466V7.861h1.328c.483,0,.616-.218.69-.621l.105-.41a.093.093,0,0,1,.106-.1h.3c.034,0,.034.019.034.056-.009.118-.021.245-.034.377-.032.34-.069.724-.069,1.059a8.432,8.432,0,0,0,.061.9c.015.143.03.29.042.439l-.034.037h-.3c-.084,0-.126-.033-.126-.1l-.089-.428a.611.611,0,0,0-.691-.6H48.144v2.968c0,.362.193.736.515.736h1.683c.842,0,1.385-.548,1.614-1.628l.443.057-.358,2.231-.033.037c-.006,0-1.047-.037-1.578-.037h-3.1l0,.006H47.3c-.541,0-1.713.035-1.725.036Zm-7.985,0h0l-.02-.036v-.407c0-.078.034-.1.107-.117l.375-.056c.534-.078.724-.241.724-.623V5.127l-.006,0c0-.6-.246-.621-1.064-.679-.1,0-.122-.05-.122-.093V3.911l.034-.019c.112,0,.361.007.649.014.391.01.878.023,1.177.023.229,0,.507-.008.8-.017.349-.01.709-.021,1.06-.021,2.458,0,2.974,1.288,2.974,2.368a3.322,3.322,0,0,1-.57,1.926,2.861,2.861,0,0,1-2.457,1.055,2.457,2.457,0,0,1-1.116-.194v2.6c0,.415.195.519.78.619l.355.056c.07.022.126.039.126.119v.407l-.017.036h0c-.023,0-1.43-.036-1.967-.036-.491,0-1.809.037-1.822.037ZM41.2,4.451c-.826,0-1.065.152-1.065.679V8.5a2.926,2.926,0,0,0,1.152.175c1.076,0,1.578-.7,1.578-2.192C42.861,4.7,42.06,4.451,41.2,4.451Z"/></g></g></svg>