<svg xmlns="http://www.w3.org/2000/svg" width="26" height="26" viewBox="0 0 26 26"><defs><style>.a{fill:none;}</style></defs><path class="a" d="M0,0H26V26H0Z"/><path d="M14.182,22H12L16.909,8.8h2.182L24,22H21.818l-1.227-3.3H15.409L14.182,22ZM18,11.732,16.227,16.5h3.546ZM3.272,18.7h0L1.729,17.143l5.548-5.527A19.319,19.319,0,0,1,4.026,6.6H6.207a17.373,17.373,0,0,0,2.52,3.685,17.345,17.345,0,0,0,3.458-5.9H0V2.2H7.636V0H9.818V2.2h7.636V4.406h-3.2a19.2,19.2,0,0,1-4.047,7.183l-.032.033,2.771,2.761-.829,2.238L8.727,13.2,3.273,18.7Z" transform="translate(1 2)"/></svg>